<svg xmlns="http://www.w3.org/2000/svg" width="1600" height="900" viewBox="0 0 1600 900" role="img" aria-labelledby="title desc">
<title id="title">??????????????</title>
<desc id="desc">?????????manifest????????????????????????</desc>

  <defs>
    <marker id="arrow" markerWidth="12" markerHeight="12" refX="10" refY="6" orient="auto" markerUnits="strokeWidth"><path d="M2,2 L10,6 L2,10 Z" fill="#334155"/></marker>
    <marker id="arrow-green" markerWidth="12" markerHeight="12" refX="10" refY="6" orient="auto" markerUnits="strokeWidth"><path d="M2,2 L10,6 L2,10 Z" fill="#2f855a"/></marker>
    <filter id="soft-shadow" x="-10%" y="-10%" width="120%" height="120%"><feDropShadow dx="0" dy="7" stdDeviation="7" flood-color="#0f172a" flood-opacity="0.08"/></filter>
    <style>
      .bg { fill: #f8fafc; }
      .title { font: 700 36px "Microsoft YaHei UI", "Microsoft YaHei", "Noto Sans CJK SC", Arial, sans-serif; fill: #0f172a; text-anchor: middle; }
      .subtitle { font: 400 18px "Microsoft YaHei UI", "Microsoft YaHei", "Noto Sans CJK SC", Arial, sans-serif; fill: #475569; text-anchor: middle; }
      .section { font: 700 22px "Microsoft YaHei UI", "Microsoft YaHei", "Noto Sans CJK SC", Arial, sans-serif; fill: #0f172a; }
      .box-title { font: 700 19px "Microsoft YaHei UI", "Microsoft YaHei", "Noto Sans CJK SC", Arial, sans-serif; fill: #0f172a; }
      .body { font: 400 15px "Microsoft YaHei UI", "Microsoft YaHei", "Noto Sans CJK SC", Arial, sans-serif; fill: #334155; }
      .small { font: 400 13px "Microsoft YaHei UI", "Microsoft YaHei", "Noto Sans CJK SC", Arial, sans-serif; fill: #475569; }
      .tag { font: 700 13px "Microsoft YaHei UI", "Microsoft YaHei", "Noto Sans CJK SC", Arial, sans-serif; fill: #fff; text-anchor: middle; }
      .node { stroke-width: 1.6; rx: 8; filter: url(#soft-shadow); }
      .panel { stroke-width: 1.6; rx: 10; filter: url(#soft-shadow); }
      .line { fill: none; stroke: #334155; stroke-width: 2.4; marker-end: url(#arrow); }
      .line-soft { fill: none; stroke: #64748b; stroke-width: 2; marker-end: url(#arrow); }
      .line-dash { fill: none; stroke: #7c3aed; stroke-width: 2; stroke-dasharray: 7 7; marker-end: url(#arrow); }
      .line-green { fill: none; stroke: #2f855a; stroke-width: 2.4; marker-end: url(#arrow-green); }
    </style>
  </defs>

<rect class="bg" width="1600" height="900"/>
<text class="title" x="800" y="54">??????????????</text>
<text class="subtitle" x="800" y="84">141 ???????????????????? compare ??????????</text>
<rect class="node" x="55" y="132" width="310" height="260" rx="8" fill="#e9f7ef" stroke="#8fc9a8"/>
<rect x="79" y="154" width="190" height="38" rx="8" fill="#2f855a"/>
<text class="tag" x="174.0" y="178.0">Sources</text>
<text class="box-title" x="79" y="226">????</text>
<text class="body" x="79" y="254">
<tspan x="79" dy="0">???? / ????</tspan>
<tspan x="79" dy="23">?????? / ???????</tspan>
<tspan x="79" dy="23">??? collected-data ?? 120 ?</tspan>
<tspan x="79" dy="23">?? 48 ???????</tspan>
</text>
<rect class="node" x="55" y="465" width="310" height="165" rx="8" fill="#fff1f2" stroke="#f3a6ad"/>
<text class="box-title" x="79" y="499">????</text>
<text class="body" x="79" y="527">
<tspan x="79" dy="0">source_tier ??????</tspan>
<tspan x="79" dy="23">verified_award ???????</tspan>
<tspan x="79" dy="23">manifest-audit ?? repo_id ??</tspan>
</text>
<rect class="node" x="435" y="132" width="730" height="84" rx="8" fill="#ffffff" stroke="#8bb8e8"/>
<text class="box-title" x="459" y="166">data/samples/manifest.json</text>
<text class="body" x="459" y="194">
<tspan x="459" dy="0">?? repo_id????????????????????????</tspan>
</text>
<rect class="node" x="435" y="258" width="730" height="84" rx="8" fill="#ffffff" stroke="#8fc9a8"/>
<text class="box-title" x="459" y="292">manifest_audit.py ????????</text>
<text class="body" x="459" y="320">
<tspan x="459" dy="0">?????????????????????? HEAD ???</tspan>
</text>
<rect class="node" x="435" y="384" width="730" height="84" rx="8" fill="#ffffff" stroke="#f0bd6a"/>
<text class="box-title" x="459" y="418">fetch_repos.py / ??????</text>
<text class="body" x="459" y="446">
<tspan x="459" dy="0">? manifest ????? data/samples/&lt;repo_id&gt;/???????????</tspan>
</text>
<rect class="node" x="435" y="510" width="730" height="100" rx="8" fill="#ffffff" stroke="#b99be6"/>
<text class="box-title" x="459" y="544">ProfileCache ????</text>
<text class="body" x="459" y="572">
<tspan x="459" dy="0">???? fingerprint???????? data/profiles/*.json</tspan>
<tspan x="459" dy="23">???????????? KernelProfile</tspan>
</text>
<rect class="node" x="435" y="760" width="730" height="82" rx="8" fill="#f1f5f9" stroke="#cbd5e1"/>
<text class="box-title" x="459" y="794">????</text>
<text class="body" x="459" y="822">
<tspan x="459" dy="0">selector.py Top N ?? / baseline.html ???? / docs ???? / ????</tspan>
</text>
<rect class="node" x="1225" y="155" width="320" height="210" rx="8" fill="#fff7e8" stroke="#f0bd6a"/>
<text class="box-title" x="1249" y="189">??????</text>
<text class="body" x="1249" y="217">
<tspan x="1249" dy="0">???????</tspan>
<tspan x="1249" dy="23">?????????</tspan>
<tspan x="1249" dy="23">?????????</tspan>
<tspan x="1249" dy="23">?????????</tspan>
</text>
<rect class="node" x="1225" y="455" width="320" height="175" rx="8" fill="#ecfeff" stroke="#67c7d4"/>
<text class="box-title" x="1249" y="489">????</text>
<text class="body" x="1249" y="517">
<tspan x="1249" dy="0">?????????????</tspan>
<tspan x="1249" dy="23">??????????</tspan>
<tspan x="1249" dy="23">Top N ???????</tspan>
</text>
<line class="line" x1="365" y1="255" x2="428" y2="174"/>
<line class="line" x1="800" y1="216" x2="800" y2="257"/>
<line class="line" x1="800" y1="342" x2="800" y2="383"/>
<line class="line" x1="800" y1="468" x2="800" y2="509"/>
<line class="line" x1="800" y1="610" x2="800" y2="755"/>
<line class="line-soft" x1="365" y1="545" x2="428" y2="300"/>
<line class="line" x1="1165" y1="174" x2="1218" y2="255"/>
<line class="line-green" x1="1165" y1="560" x2="1218" y2="535"/>
</svg>
